# xmcd CD database file
#
# Track frame offsets:
#	150
#	21668
#	38985
#	54168
#	75125
#	88003
#	104988
#	122700
#	135175
#	153570
#	168215
#	185068
#	202960
#	219440
#	230723
#
# Disc length: 3246 seconds
#
# Revision: 0
# Processed by: cddbd v1.5.2PL0 Copyright (c) Steve Scherf et al.
# Submitted via: CDex 1.70beta2
#
DISCID=c80cac0f
DTITLE=Various Artist - 15 grandes sucesos de Salsa
DYEAR=1990
DGENRE=Salsa
TTITLE0=Los Titanes - Por Retenerte
TTITLE1=Orq. los Tupamaros - De Todas Formas
TTITLE2=La sonora Dinamita - Del Monton
TTITLE3=The Latin Brothers - Buscandote
TTITLE4=Afrosound - Esa Pareja
TTITLE5=Alfredo de la Fe y Su Oro - La Mucura
TTITLE6=Los Nemus del Pacifico - Lindas y Bellas
TTITLE7=La sonora Dinamita - Yo la Vi
TTITLE8=Fruko y sus Tejos - El Cocinero Mayor
TTITLE9=Los Titanes - Sobredosis
TTITLE10=Los Nemus del Pacifico - Mirala Como Va
TTITLE11=Los Titanes - En Trance
TTITLE12=Los Nemus del Pacifico - Para la Luna
TTITLE13=La sonora Dinamita - La Vieron Llorar
TTITLE14=Afrosound - El Esclavo
EXTD=YEAR: 1990
EXTT0=
EXTT1=
EXTT2=
EXTT3=
EXTT4=
EXTT5=
EXTT6=
EXTT7=
EXTT8=
EXTT9=
EXTT10=
EXTT11=
EXTT12=
EXTT13=
EXTT14=
PLAYORDER=
